<mxfile host="app.diagrams.net" modified="2023-10-01T15:10:17.675Z" agent="5.0 (Windows NT 10.0; Win64; x64) AppleWebKit/537.36 (KHTML, like Gecko) Chrome/117.0.0.0 Safari/537.36" etag="BODwxt87uLOo5U1rl2cw" version="14.6.11" type="github">
  <diagram id="6a731a19-8d31-9384-78a2-239565b7b9f0" name="Page-1">
    <mxGraphModel dx="6394" dy="2520" grid="1" gridSize="10" guides="1" tooltips="1" connect="1" arrows="1" fold="1" page="1" pageScale="1" pageWidth="1654" pageHeight="1169" background="none" math="0" shadow="0">
      <root>
        <mxCell id="0" />
        <mxCell id="1" parent="0" />
        <mxCell id="CUySyMDOOAeZHdn6piLn-2302" value="Server Rack" style="rounded=1;whiteSpace=wrap;html=1;strokeColor=none;fillColor=#BAC8D3;fontSize=24;fontColor=#23445D;align=center;opacity=60;labelPosition=center;verticalLabelPosition=bottom;verticalAlign=top;" vertex="1" parent="1">
          <mxGeometry x="-450" y="580" width="250" height="300" as="geometry" />
        </mxCell>
        <mxCell id="CUySyMDOOAeZHdn6piLn-2301" value="TV Bench" style="rounded=1;whiteSpace=wrap;html=1;strokeColor=none;fillColor=#BAC8D3;fontSize=24;fontColor=#23445D;align=center;opacity=60;labelPosition=center;verticalLabelPosition=bottom;verticalAlign=top;" vertex="1" parent="1">
          <mxGeometry x="-770" y="390" width="250" height="300" as="geometry" />
        </mxCell>
        <mxCell id="2089" value="Media Enclosure" style="rounded=1;whiteSpace=wrap;html=1;strokeColor=none;fillColor=#BAC8D3;fontSize=24;fontColor=#23445D;align=center;opacity=60;labelPosition=center;verticalLabelPosition=bottom;verticalAlign=top;" parent="1" vertex="1">
          <mxGeometry x="-1134.5" y="350" width="250" height="450" as="geometry" />
        </mxCell>
        <mxCell id="CUySyMDOOAeZHdn6piLn-2257" value="Internet&lt;br&gt;GrateWall&lt;br&gt;RJ45" style="shape=mxgraph.cisco.storage.cloud;html=1;dashed=0;strokeColor=#23445D;fillColor=#ffffff;strokeWidth=2;fontFamily=Helvetica;fontSize=24;fontColor=#23445D;align=center;fontStyle=1" vertex="1" parent="1">
          <mxGeometry x="-1430" y="380" width="238" height="126" as="geometry" />
        </mxCell>
        <mxCell id="CUySyMDOOAeZHdn6piLn-2259" value="Internet&lt;br&gt;ChinaTelecom&lt;br&gt;FTTH" style="shape=mxgraph.cisco.storage.cloud;html=1;dashed=0;strokeColor=#23445D;fillColor=#ffffff;strokeWidth=2;fontFamily=Helvetica;fontSize=24;fontColor=#23445D;align=center;fontStyle=1" vertex="1" parent="1">
          <mxGeometry x="-1422" y="570" width="230" height="130" as="geometry" />
        </mxCell>
        <mxCell id="CUySyMDOOAeZHdn6piLn-2260" value="ubnt&lt;br&gt;10.1.1.1" style="shape=mxgraph.cisco.routers.router;html=1;dashed=0;fillColor=#10739E;strokeColor=#ffffff;strokeWidth=2;verticalLabelPosition=bottom;verticalAlign=top;fontFamily=Helvetica;fontSize=36;align=center;" vertex="1" parent="1">
          <mxGeometry x="-1087.5" y="413" width="144" height="60" as="geometry" />
        </mxCell>
        <mxCell id="CUySyMDOOAeZHdn6piLn-2264" value="" style="shape=link;html=1;fontColor=#000000;align=left;exitX=0.98;exitY=0.5;exitDx=0;exitDy=0;exitPerimeter=0;entryX=0;entryY=0.5;entryDx=0;entryDy=0;entryPerimeter=0;strokeWidth=5;width=4.117647058823529;" edge="1" parent="1" source="CUySyMDOOAeZHdn6piLn-2257" target="CUySyMDOOAeZHdn6piLn-2260">
          <mxGeometry width="100" relative="1" as="geometry">
            <mxPoint x="-1187" y="500" as="sourcePoint" />
            <mxPoint x="-1087" y="500" as="targetPoint" />
          </mxGeometry>
        </mxCell>
        <mxCell id="CUySyMDOOAeZHdn6piLn-2266" value="PPPoE" style="text;strokeColor=none;fillColor=none;html=1;fontSize=24;fontStyle=1;verticalAlign=middle;align=center;fontColor=#000000;" vertex="1" parent="1">
          <mxGeometry x="-1187.5" y="450" width="100" height="40" as="geometry" />
        </mxCell>
        <mxCell id="CUySyMDOOAeZHdn6piLn-2270" value="" style="shape=link;html=1;fontColor=#000000;align=left;exitX=0.98;exitY=0.5;exitDx=0;exitDy=0;exitPerimeter=0;strokeWidth=5;width=4.117647058823529;entryX=0;entryY=0.5;entryDx=0;entryDy=0;entryPerimeter=0;" edge="1" parent="1" source="CUySyMDOOAeZHdn6piLn-2259" target="CUySyMDOOAeZHdn6piLn-2271">
          <mxGeometry width="100" relative="1" as="geometry">
            <mxPoint x="-1240.2600000000002" y="630" as="sourcePoint" />
            <mxPoint x="-1147" y="640" as="targetPoint" />
          </mxGeometry>
        </mxCell>
        <mxCell id="CUySyMDOOAeZHdn6piLn-2271" value="Modem" style="shape=mxgraph.cisco.routers.router;html=1;dashed=0;fillColor=#10739E;strokeColor=#ffffff;strokeWidth=2;verticalLabelPosition=bottom;verticalAlign=top;fontFamily=Helvetica;fontSize=36;align=center;" vertex="1" parent="1">
          <mxGeometry x="-1087.5" y="605" width="144" height="60" as="geometry" />
        </mxCell>
        <mxCell id="CUySyMDOOAeZHdn6piLn-2272" value="" style="shape=mxgraph.cisco.switches.workgroup_switch;html=1;pointerEvents=1;dashed=0;fillColor=#036897;strokeColor=#ffffff;strokeWidth=2;verticalLabelPosition=bottom;verticalAlign=top;align=center;outlineConnect=0;fontColor=#000000;" vertex="1" parent="1">
          <mxGeometry x="-730" y="560" width="138" height="70" as="geometry" />
        </mxCell>
        <mxCell id="CUySyMDOOAeZHdn6piLn-2279" value="" style="shape=mxgraph.cisco.switches.workgroup_switch;html=1;pointerEvents=1;dashed=0;fillColor=#036897;strokeColor=#ffffff;strokeWidth=2;verticalLabelPosition=bottom;verticalAlign=top;align=center;outlineConnect=0;fontColor=#000000;" vertex="1" parent="1">
          <mxGeometry x="-730" y="430" width="138" height="70" as="geometry" />
        </mxCell>
        <mxCell id="CUySyMDOOAeZHdn6piLn-2280" value="" style="endArrow=classic;html=1;fontColor=#000000;strokeWidth=5;align=left;exitX=1;exitY=0.5;exitDx=0;exitDy=0;exitPerimeter=0;" edge="1" parent="1" source="CUySyMDOOAeZHdn6piLn-2260">
          <mxGeometry relative="1" as="geometry">
            <mxPoint x="-877" y="490" as="sourcePoint" />
            <mxPoint x="-657" y="330" as="targetPoint" />
          </mxGeometry>
        </mxCell>
        <mxCell id="CUySyMDOOAeZHdn6piLn-2281" value="Desktop" style="edgeLabel;resizable=0;html=1;align=center;verticalAlign=middle;" connectable="0" vertex="1" parent="CUySyMDOOAeZHdn6piLn-2280">
          <mxGeometry relative="1" as="geometry" />
        </mxCell>
        <mxCell id="CUySyMDOOAeZHdn6piLn-2282" value="" style="endArrow=classic;html=1;fontColor=#000000;strokeWidth=5;align=left;exitX=1;exitY=0.5;exitDx=0;exitDy=0;exitPerimeter=0;" edge="1" parent="1" source="CUySyMDOOAeZHdn6piLn-2260" target="CUySyMDOOAeZHdn6piLn-2279">
          <mxGeometry relative="1" as="geometry">
            <mxPoint x="-933.5" y="453" as="sourcePoint" />
            <mxPoint x="-657" y="490" as="targetPoint" />
          </mxGeometry>
        </mxCell>
        <mxCell id="CUySyMDOOAeZHdn6piLn-2283" value="Living #1" style="edgeLabel;resizable=0;html=1;align=center;verticalAlign=middle;" connectable="0" vertex="1" parent="CUySyMDOOAeZHdn6piLn-2282">
          <mxGeometry relative="1" as="geometry" />
        </mxCell>
        <mxCell id="CUySyMDOOAeZHdn6piLn-2284" value="Living #2" style="endArrow=classic;html=1;fontColor=#000000;strokeWidth=5;align=center;exitX=1;exitY=0.5;exitDx=0;exitDy=0;exitPerimeter=0;" edge="1" parent="1" source="CUySyMDOOAeZHdn6piLn-2271">
          <mxGeometry relative="1" as="geometry">
            <mxPoint x="-933.5" y="453" as="sourcePoint" />
            <mxPoint x="-697" y="820" as="targetPoint" />
          </mxGeometry>
        </mxCell>
        <mxCell id="CUySyMDOOAeZHdn6piLn-2286" value="" style="endArrow=classic;html=1;fontColor=#000000;strokeWidth=5;align=center;" edge="1" parent="1" source="CUySyMDOOAeZHdn6piLn-2279" target="CUySyMDOOAeZHdn6piLn-2272">
          <mxGeometry width="50" height="50" relative="1" as="geometry">
            <mxPoint x="-837" y="590" as="sourcePoint" />
            <mxPoint x="-787" y="540" as="targetPoint" />
          </mxGeometry>
        </mxCell>
        <mxCell id="CUySyMDOOAeZHdn6piLn-2287" value="NAS" style="endArrow=classic;html=1;fontColor=#000000;strokeWidth=5;align=center;exitX=0.98;exitY=0.5;exitDx=0;exitDy=0;exitPerimeter=0;" edge="1" parent="1" source="CUySyMDOOAeZHdn6piLn-2279">
          <mxGeometry relative="1" as="geometry">
            <mxPoint x="-432.75" y="425.95000000000005" as="sourcePoint" />
            <mxPoint x="-377" y="420" as="targetPoint" />
          </mxGeometry>
        </mxCell>
        <mxCell id="CUySyMDOOAeZHdn6piLn-2289" value="" style="endArrow=classic;html=1;fontColor=#000000;strokeWidth=5;align=left;exitX=0.98;exitY=0.5;exitDx=0;exitDy=0;exitPerimeter=0;" edge="1" parent="1" source="CUySyMDOOAeZHdn6piLn-2279">
          <mxGeometry relative="1" as="geometry">
            <mxPoint x="-422.75" y="435.9499999999998" as="sourcePoint" />
            <mxPoint x="-387" y="520" as="targetPoint" />
          </mxGeometry>
        </mxCell>
        <mxCell id="CUySyMDOOAeZHdn6piLn-2290" value="Topset" style="edgeLabel;resizable=0;html=1;align=center;verticalAlign=middle;" connectable="0" vertex="1" parent="CUySyMDOOAeZHdn6piLn-2289">
          <mxGeometry relative="1" as="geometry" />
        </mxCell>
        <mxCell id="CUySyMDOOAeZHdn6piLn-2291" value="" style="endArrow=classic;html=1;fontColor=#000000;strokeWidth=5;align=left;exitX=0.98;exitY=0.5;exitDx=0;exitDy=0;exitPerimeter=0;" edge="1" parent="1" source="CUySyMDOOAeZHdn6piLn-2279">
          <mxGeometry relative="1" as="geometry">
            <mxPoint x="-412.75" y="445.9499999999998" as="sourcePoint" />
            <mxPoint x="-377" y="470" as="targetPoint" />
          </mxGeometry>
        </mxCell>
        <mxCell id="CUySyMDOOAeZHdn6piLn-2292" value="Printer" style="edgeLabel;resizable=0;html=1;align=center;verticalAlign=middle;" connectable="0" vertex="1" parent="CUySyMDOOAeZHdn6piLn-2291">
          <mxGeometry relative="1" as="geometry" />
        </mxCell>
        <mxCell id="CUySyMDOOAeZHdn6piLn-2293" value="" style="endArrow=classic;html=1;fontColor=#000000;strokeWidth=5;align=left;exitX=0.98;exitY=0.5;exitDx=0;exitDy=0;exitPerimeter=0;" edge="1" parent="1" source="CUySyMDOOAeZHdn6piLn-2272">
          <mxGeometry relative="1" as="geometry">
            <mxPoint x="-402.75" y="455.9499999999998" as="sourcePoint" />
            <mxPoint x="-367" y="560" as="targetPoint" />
          </mxGeometry>
        </mxCell>
        <mxCell id="CUySyMDOOAeZHdn6piLn-2294" value="Television" style="edgeLabel;resizable=0;html=1;align=center;verticalAlign=middle;" connectable="0" vertex="1" parent="CUySyMDOOAeZHdn6piLn-2293">
          <mxGeometry relative="1" as="geometry" />
        </mxCell>
        <mxCell id="CUySyMDOOAeZHdn6piLn-2295" value="" style="endArrow=classic;html=1;fontColor=#000000;strokeWidth=5;align=left;exitX=0.98;exitY=0.5;exitDx=0;exitDy=0;exitPerimeter=0;" edge="1" parent="1" source="CUySyMDOOAeZHdn6piLn-2272">
          <mxGeometry relative="1" as="geometry">
            <mxPoint x="-392.75" y="465.9499999999998" as="sourcePoint" />
            <mxPoint x="-317" y="620" as="targetPoint" />
          </mxGeometry>
        </mxCell>
        <mxCell id="CUySyMDOOAeZHdn6piLn-2296" value="Cluster A" style="edgeLabel;resizable=0;html=1;align=center;verticalAlign=middle;" connectable="0" vertex="1" parent="CUySyMDOOAeZHdn6piLn-2295">
          <mxGeometry relative="1" as="geometry" />
        </mxCell>
        <mxCell id="CUySyMDOOAeZHdn6piLn-2297" value="" style="endArrow=classic;html=1;fontColor=#000000;strokeWidth=5;align=left;exitX=0.98;exitY=0.5;exitDx=0;exitDy=0;exitPerimeter=0;" edge="1" parent="1" source="CUySyMDOOAeZHdn6piLn-2272">
          <mxGeometry relative="1" as="geometry">
            <mxPoint x="-382.75" y="475.9499999999998" as="sourcePoint" />
            <mxPoint x="-317" y="670" as="targetPoint" />
          </mxGeometry>
        </mxCell>
        <mxCell id="CUySyMDOOAeZHdn6piLn-2298" value="Cluster B" style="edgeLabel;resizable=0;html=1;align=center;verticalAlign=middle;" connectable="0" vertex="1" parent="CUySyMDOOAeZHdn6piLn-2297">
          <mxGeometry relative="1" as="geometry" />
        </mxCell>
        <mxCell id="CUySyMDOOAeZHdn6piLn-2299" value="" style="endArrow=classic;html=1;fontColor=#000000;strokeWidth=5;align=left;exitX=0.98;exitY=0.5;exitDx=0;exitDy=0;exitPerimeter=0;" edge="1" parent="1" source="CUySyMDOOAeZHdn6piLn-2272">
          <mxGeometry relative="1" as="geometry">
            <mxPoint x="-372.75" y="485.9499999999998" as="sourcePoint" />
            <mxPoint x="-310" y="727" as="targetPoint" />
          </mxGeometry>
        </mxCell>
        <mxCell id="CUySyMDOOAeZHdn6piLn-2300" value="Cluster C" style="edgeLabel;resizable=0;html=1;align=center;verticalAlign=middle;" connectable="0" vertex="1" parent="CUySyMDOOAeZHdn6piLn-2299">
          <mxGeometry relative="1" as="geometry" />
        </mxCell>
      </root>
    </mxGraphModel>
  </diagram>
</mxfile>
